<svg width="135" height="47" viewBox="0 0 135 47" fill="none" xmlns="http://www.w3.org/2000/svg">
<path d="M55.3436 35.3223C55.0806 35.3223 54.949 35.1776 54.949 34.8883V9.9134C54.949 9.62407 55.0806 9.4794 55.3436 9.4794H60.236C60.4727 9.4794 60.6305 9.57146 60.7094 9.75558L67.8113 24.1566C68.311 25.1035 68.745 25.9715 69.1133 26.7606C69.5078 27.5497 69.8498 28.2993 70.1391 29.0095C70.4548 29.7197 70.7441 30.3904 71.0071 31.0217H71.086C71.086 30.4956 71.0729 29.9301 71.0466 29.3251C71.0466 28.7202 71.0334 28.1152 71.0071 27.5102C71.0071 26.9053 71.0071 26.3003 71.0071 25.6953C71.0071 25.0903 71.0071 24.5248 71.0071 23.9988V9.9134C71.0071 9.62407 71.1386 9.4794 71.4017 9.4794H74.2819C74.5712 9.4794 74.7159 9.62407 74.7159 9.9134V34.8883C74.7159 35.1776 74.5712 35.3223 74.2819 35.3223H69.5078C69.2711 35.3223 69.1001 35.2302 68.9949 35.0461L62.0509 21.0396C61.63 20.1979 61.2223 19.3694 60.8278 18.554C60.4596 17.7386 60.0913 16.9363 59.7231 16.1473C59.3548 15.3582 58.9997 14.5691 58.6578 13.78H58.5789C58.5789 14.4638 58.5789 15.1214 58.5789 15.7527C58.6052 16.3577 58.6183 16.9758 58.6183 17.6071C58.6446 18.2121 58.6578 18.8302 58.6578 19.4615C58.6578 20.0664 58.6578 20.6977 58.6578 21.3553V34.8883C58.6578 35.1776 58.5131 35.3223 58.2238 35.3223H55.3436ZM81.544 35.3223C81.281 35.3223 81.1495 35.1776 81.1495 34.8883V9.9134C81.1495 9.62407 81.281 9.4794 81.544 9.4794H88.8037C91.8549 9.4794 94.1301 10.0186 95.6294 11.097C97.1286 12.1492 97.8783 13.7537 97.8783 15.9105C97.8783 17.3572 97.5363 18.5277 96.8525 19.422C96.1949 20.3163 95.0901 21.0396 93.5383 21.592V21.6709C95.3532 22.0129 96.7078 22.723 97.6021 23.8015C98.5227 24.8799 98.983 26.3266 98.983 28.1415C98.983 30.614 98.1676 32.4289 96.5368 33.5863C94.906 34.7436 92.3415 35.3223 88.8431 35.3223H81.544ZM84.8977 32.087H88.8431C91.1315 32.087 92.7623 31.7713 93.7355 31.1401C94.735 30.4825 95.2348 29.4041 95.2348 27.9048C95.2348 26.3529 94.735 25.2218 93.7355 24.5117C92.736 23.8015 91.1447 23.4464 88.9615 23.4464H84.8977V32.087ZM84.8977 20.4873H88.6853C90.5791 20.4873 91.9601 20.1716 92.8281 19.5404C93.6961 18.8828 94.1301 17.8701 94.1301 16.5023C94.1301 15.1083 93.6829 14.1219 92.7886 13.5432C91.8943 12.9646 90.4082 12.6752 88.3302 12.6752H84.8977V20.4873ZM100.886 35.3223C100.571 35.3223 100.452 35.1644 100.531 34.8488L109.211 9.79504C109.29 9.58461 109.448 9.4794 109.685 9.4794H113.67C113.933 9.4794 114.104 9.58461 114.183 9.79504L122.942 34.8488C122.994 35.0066 122.981 35.125 122.902 35.2039C122.85 35.2828 122.744 35.3223 122.587 35.3223H119.391C119.128 35.3223 118.957 35.2171 118.878 35.0066L113.236 17.686C112.973 16.8969 112.71 16.0946 112.447 15.2792C112.184 14.4638 111.907 13.6485 111.618 12.8331H111.579C111.342 13.6221 111.092 14.4244 110.829 15.2398C110.566 16.0289 110.303 16.818 110.04 17.6071L104.437 34.9672C104.358 35.2039 104.201 35.3223 103.964 35.3223H100.886ZM105.582 29.483L106.41 26.2477H116.826L117.694 29.483H105.582Z" fill="white"/>
<path d="M3.73372 12.7695L21.7742 2.35386L39.8147 12.7695V33.6009L21.7742 44.0165L3.73372 33.6009V12.7695Z" stroke="url(#paint0_linear_25_1737)" stroke-width="1.63306"/>
<path d="M10.3337 16.58L21.7742 9.97483L33.2147 16.58V29.7904L21.7742 36.3956L10.3337 29.7904V16.58Z" fill="url(#paint1_radial_25_1737)" fill-opacity="0.5" stroke="url(#paint2_linear_25_1737)" stroke-width="1.63306"/>
<defs>
<linearGradient id="paint0_linear_25_1737" x1="21.7742" y1="1.41101" x2="21.7742" y2="44.9594" gradientUnits="userSpaceOnUse">
<stop stop-color="#ACE019"/>
<stop offset="1" stop-color="#9E2599"/>
</linearGradient>
<radialGradient id="paint1_radial_25_1737" cx="0" cy="0" r="1" gradientUnits="userSpaceOnUse" gradientTransform="translate(21.7742 23.1852) rotate(90) scale(14.1532)">
<stop stop-color="#161516"/>
<stop offset="1" stop-color="#A2507C"/>
</radialGradient>
<linearGradient id="paint2_linear_25_1737" x1="21.7742" y1="9.03198" x2="21.7742" y2="37.3384" gradientUnits="userSpaceOnUse">
<stop stop-color="#ACE019"/>
<stop offset="1" stop-color="#9E2599"/>
</linearGradient>
</defs>
</svg>
